<mxfile host="65bd71144e">
    <diagram id="qOHvzCfFXYHSmNZSQoWs" name="第1頁">
        <mxGraphModel dx="1565" dy="829" grid="1" gridSize="10" guides="1" tooltips="1" connect="1" arrows="1" fold="1" page="1" pageScale="1" pageWidth="827" pageHeight="1169" math="0" shadow="0">
            <root>
                <mxCell id="0"/>
                <mxCell id="1" parent="0"/>
                <mxCell id="24" style="edgeStyle=orthogonalEdgeStyle;html=1;entryX=0.5;entryY=0;entryDx=0;entryDy=0;fontSize=12;" edge="1" parent="1" source="2" target="10">
                    <mxGeometry relative="1" as="geometry"/>
                </mxCell>
                <mxCell id="2" value="&lt;b style=&quot;font-size: 14px;&quot;&gt;AI MODEL&lt;br&gt;&lt;/b&gt;ChatGPT&lt;br&gt;Claude&lt;br&gt;Grok AI&lt;br&gt;Gemini&lt;br&gt;DeepSeek" style="rounded=1;whiteSpace=wrap;html=1;" vertex="1" parent="1">
                    <mxGeometry x="70" y="160" width="120" height="130" as="geometry"/>
                </mxCell>
                <mxCell id="5" value="" style="group" vertex="1" connectable="0" parent="1">
                    <mxGeometry x="270" y="160" width="120" height="130" as="geometry"/>
                </mxCell>
                <mxCell id="3" value="&lt;b style=&quot;border-color: var(--border-color); color: rgb(0, 0, 0); font-family: Helvetica; font-size: 14px; font-style: normal; font-variant-ligatures: normal; font-variant-caps: normal; letter-spacing: normal; orphans: 2; text-align: center; text-indent: 0px; text-transform: none; widows: 2; word-spacing: 0px; -webkit-text-stroke-width: 0px; background-color: rgb(251, 251, 251); text-decoration-thickness: initial; text-decoration-style: initial; text-decoration-color: initial;&quot;&gt;&lt;br&gt;&lt;br&gt;SDN&lt;br style=&quot;border-color: var(--border-color);&quot;&gt;Controller&lt;/b&gt;" style="rounded=1;whiteSpace=wrap;html=1;" vertex="1" parent="5">
                    <mxGeometry width="120" height="130" as="geometry"/>
                </mxCell>
                <mxCell id="4" value="" style="shape=image;verticalLabelPosition=bottom;labelBackgroundColor=default;verticalAlign=top;aspect=fixed;imageAspect=0;image=data:image/png,iVBORw0KGgoAAAANSUhEUgAAAKYAAABmCAYAAABBYOrDAAAMPmlDQ1BJQ0MgUHJvZmlsZQAASImVVwdYU8kWnluSkEBoAQSkhN4EASkBpITQAkgvgo2QBAglxoQgYi+LCq5dLGBDV0UUOyB2RLGwKPa+IKKgrIsFu/ImBXTdV7538s29f/45858z584tA4DGaY5IlItqApAnzBfHhQbSx6ak0kk9AIE/KtAFqhyuRMSMiYkE0AbPf7d3t6AvtOuOMq1/9v9X0+LxJVwAkBiI03kSbh7EhwHAK7gicT4ARBlvMTVfJMOwAR0xTBDiRTKcqcAVMpyuwPvlPglxLIibAFBR43DEmQCoX4U8vYCbCTXU+yB2FvIEQgA06BD75eVN5kGcBrEt9BFBLNNnpP+gk/k3zfQhTQ4ncwgr5iI3lSCBRJTLmfZ/luN/W16udDCGNWxqWeKwONmcYd3u5EyOkGE1iHuF6VHREGtD/EHAk/tDjFKypGGJCn/UiCthwZoBPYideZygCIiNIA4R5kZFKvn0DEEIG2K4QtBCQT47AWJ9iBfxJcHxSp8t4slxylhobYaYxVTyFzhieVxZrEfSnESmUv91Fp+t1MfUi7ISkiGmQGxZIEiKglgdYidJTnyE0md0URYratBHLI2T5W8JcRxfGBqo0McKMsQhcUr/kjzJ4HyxLVkCdpQSH8zPSghT1Adr4nLk+cO5YFf5QmbioA5fMjZycC48flCwYu5YN1+YGK/U+SDKD4xTjMUpotwYpT9uzs8NlfHmELtJCuKVY/GkfLggFfp4hig/JkGRJ16UzQmPUeSDLweRgAWCAB1IYUsHk0E2ELT21vXCf4qeEMABYpAJ+MBRyQyOSJb3COExHhSBPyHiA8nQuEB5Lx8UQP7rEKs4OoIMeW+BfEQOeApxHogAufC/VD5KOBQtCTyBjOAf0TmwcWG+ubDJ+v89P8h+Z5iQiVQy0sGIdI1BT2IwMYgYRgwh2uGGuB/ug0fCYwBsrjgD9xqcx3d/wlNCG+Ex4SahnXB3kmCe+Kcsx4B2qB+irEX6j7XAraGmOx6I+0J1qIzr4YbAEXeDcZi4P4zsDlmWMm9ZVeg/af9tBj9cDaUf2ZmMkoeRA8i2P49Ut1d3H1KR1frH+ihyTR+qN2uo5+f4rB+qz4PniJ89sUXYIawZO4NdxI5jdYCOncLqsRbshAwPra4n8tU1GC1Onk8O1BH8I97glZVVUuJc7dzj/EXRl88vlD2jAWuyaJpYkJmVT2fCNwKfzhZynUbQXZ1d3QGQvV8Uj683sfL3BqLX8p2b/wcAvqcGBgaOfefCTwFwwBPe/ke/c7YM+OpQBeDCUa5UXKDgcNmBAJ8SGvBOMwAmwALYwvm4Ag/gAwJAMAgH0SABpICJMPssuM7FYCqYAeaCYlAKloM1YAPYDLaBXWAvOAjqwHFwBpwHl8FVcBPch6unC7wAfeAd+IwgCAmhIjTEADFFrBAHxBVhIH5IMBKJxCEpSBqSiQgRKTIDmY+UIiuRDchWpAo5gBxFziAXkTbkLtKB9CCvkU8ohqqhOqgxao2ORBkoE41AE9AJaCY6BS1CF6BL0XVoJboHrUXPoJfRm2g7+gLtxwCmiulhZpgjxsBYWDSWimVgYmwWVoKVYZVYDdYAr/N1rB3rxT7iRJyG03FHuILD8ESci0/BZ+FL8A34LrwWb8Kv4x14H/6NQCUYERwI3gQ2YSwhkzCVUEwoI+wgHCGcg/dSF+EdkUjUI9oQPeG9mELMJk4nLiFuJO4jnia2ETuJ/SQSyYDkQPIlRZM4pHxSMWk9aQ/pFOkaqYv0QUVVxVTFVSVEJVVFqDJPpUxlt8pJlWsqz1Q+kzXJVmRvcjSZR55GXkbeTm4gXyF3kT9TtCg2FF9KAiWbMpeyjlJDOUd5QHmjqqpqruqlGqsqUJ2juk51v+oF1Q7Vj2raavZqLLXxalK1pWo71U6r3VV7Q6VSrakB1FRqPnUptYp6lvqI+kGdpu6kzlbnqc9WL1evVb+m/lKDrGGlwdSYqFGkUaZxSOOKRq8mWdNak6XJ0ZylWa55VPO2Zr8WTctFK1orT2uJ1m6ti1rd2iRta+1gbZ72Au1t2me1O2kYzYLGonFp82nbaedoXTpEHRsdtk62TqnOXp1WnT5dbV033STdQt1y3RO67XqYnrUeWy9Xb5neQb1bep+GGQ9jDuMPWzysZti1Ye/1h+sH6PP1S/T36d/U/2RANwg2yDFYYVBn8NAQN7Q3jDWcarjJ8Jxh73Cd4T7DucNLhh8cfs8INbI3ijOabrTNqMWo39jEONRYZLze+Kxxr4meSYBJtslqk5MmPaY0Uz9Tgelq01Omz+m6dCY9l76O3kTvMzMyCzOTmm01azX7bG5jnmg+z3yf+UMLigXDIsNitUWjRZ+lqeUYyxmW1Zb3rMhWDKssq7VWzVbvrW2sk60XWtdZd9vo27BtimyqbR7YUm39bafYVtresCPaMexy7DbaXbVH7d3ts+zL7a84oA4eDgKHjQ5tIwgjvEYIR1SOuO2o5sh0LHCsduxw0nOKdJrnVOf0cqTlyNSRK0Y2j/zm7O6c67zd+b6Ltku4yzyXBpfXrvauXNdy1xujqKNCRs0eVT/qlZuDG99tk9sdd5r7GPeF7o3uXz08PcQeNR49npaeaZ4VnrcZOowYxhLGBS+CV6DXbK/jXh+9PbzzvQ96/+Xj6JPjs9une7TNaP7o7aM7fc19Ob5bfdv96H5pflv82v3N/Dn+lf6PAywCeAE7Ap4x7ZjZzD3Ml4HOgeLAI4HvWd6smazTQVhQaFBJUGuwdnBi8IbgRyHmIZkh1SF9oe6h00NPhxHCIsJWhN1mG7O57Cp2X7hn+Mzwpgi1iPiIDRGPI+0jxZENY9Ax4WNWjXkQZRUljKqLBtHs6FXRD2NsYqbEHIslxsbElsc+jXOJmxHXHE+LnxS/O/5dQmDCsoT7ibaJ0sTGJI2k8UlVSe+Tg5JXJrePHTl25tjLKYYpgpT6VFJqUuqO1P5xwePWjOsa7z6+ePytCTYTCidcnGg4MXfiiUkakziTDqUR0pLTdqd94URzKjn96ez0ivQ+Lou7lvuCF8Bbzevh+/JX8p9l+GaszOjO9M1cldmT5Z9VltUrYAk2CF5lh2Vvzn6fE52zM2cgNzl3X55KXlreUaG2MEfYNNlkcuHkNpGDqFjUPsV7ypopfeII8Q4JIpkgqc/XgR/yLVJb6S/SjgK/gvKCD1OTph4q1CoUFrZMs5+2eNqzopCi36bj07nTG2eYzZg7o2Mmc+bWWcis9FmNsy1mL5jdNSd0zq65lLk5c3+f5zxv5by385PnNywwXjBnQecvob9UF6sXi4tvL/RZuHkRvkiwqHXxqMXrF38r4ZVcKnUuLSv9soS75NKvLr+u+3VgacbS1mUeyzYtJy4XLr+1wn/FrpVaK4tWdq4as6p2NX11yeq3ayatuVjmVrZ5LWWtdG37ush19est1y9f/2VD1oab5YHl+yqMKhZXvN/I23htU8Cmms3Gm0s3f9oi2HJna+jW2krryrJtxG0F255uT9re/Bvjt6odhjtKd3zdKdzZvituV1OVZ1XVbqPdy6rRaml1z57xe67uDdpbX+NYs3Wf3r7S/WC/dP/zA2kHbh2MONh4iHGo5rDV4YojtCMltUjttNq+uqy69vqU+raj4UcbG3wajhxzOrbzuNnx8hO6J5adpJxccHLgVNGp/tOi071nMs90Nk5qvH927NkbTbFNrecizl04H3L+bDOz+dQF3wvHL3pfPHqJcanussfl2hb3liO/u/9+pNWjtfaK55X6q15XG9pGt5285n/tzPWg6+dvsG9cvhl1s+1W4q07t8ffbr/Du9N9N/fuq3sF9z7fn/OA8KDkoebDskdGjyr/sPtjX7tH+4mOoI6Wx/GP73dyO188kTz50rXgKfVp2TPTZ1Xdrt3He0J6rj4f97zrhejF597iP7X+rHhp+/LwXwF/tfSN7et6JX418HrJG4M3O9+6vW3sj+l/9C7v3ef3JR8MPuz6yPjY/Cn507PPU7+Qvqz7ave14VvEtwcDeQMDIo6YI/8UwGBDMzIAeL0TAGoKADS4P6OMU+z/5IYo9qxyBP4TVuwR5eYBQA38fo/thV83twHYvx1uv6C+xngAYqgAJHgBdNSooTa4V5PvK2VGhPuALVFf0/PSwb8xxZ7zh7x/PgOZqhv4+fwvg2R8O+ZmdOoAAACKZVhJZk1NACoAAAAIAAQBGgAFAAAAAQAAAD4BGwAFAAAAAQAAAEYBKAADAAAAAQACAACHaQAEAAAAAQAAAE4AAAAAAAAAkAAAAAEAAACQAAAAAQADkoYABwAAABIAAAB4oAIABAAAAAEAAACmoAMABAAAAAEAAABmAAAAAEFTQ0lJAAAAU2NyZWVuc2hvdHbpZR4AAAAJcEhZcwAAFiUAABYlAUlSJPAAAAHWaVRYdFhNTDpjb20uYWRvYmUueG1wAAAAAAA8eDp4bXBtZXRhIHhtbG5zOng9ImFkb2JlOm5zOm1ldGEvIiB4OnhtcHRrPSJYTVAgQ29yZSA2LjAuMCI+CiAgIDxyZGY6UkRGIHhtbG5zOnJkZj0iaHR0cDovL3d3dy53My5vcmcvMTk5OS8wMi8yMi1yZGYtc3ludGF4LW5zIyI+CiAgICAgIDxyZGY6RGVzY3JpcHRpb24gcmRmOmFib3V0PSIiCiAgICAgICAgICAgIHhtbG5zOmV4aWY9Imh0dHA6Ly9ucy5hZG9iZS5jb20vZXhpZi8xLjAvIj4KICAgICAgICAgPGV4aWY6UGl4ZWxZRGltZW5zaW9uPjEwMjwvZXhpZjpQaXhlbFlEaW1lbnNpb24+CiAgICAgICAgIDxleGlmOlBpeGVsWERpbWVuc2lvbj4xNjY8L2V4aWY6UGl4ZWxYRGltZW5zaW9uPgogICAgICAgICA8ZXhpZjpVc2VyQ29tbWVudD5TY3JlZW5zaG90PC9leGlmOlVzZXJDb21tZW50PgogICAgICA8L3JkZjpEZXNjcmlwdGlvbj4KICAgPC9yZGY6UkRGPgo8L3g6eG1wbWV0YT4KpjdMlwAAABxpRE9UAAAAAgAAAAAAAAAzAAAAKAAAADMAAAAzAAAktwS1vt4AACSDSURBVHgB5H0L0J5Vde7+/1xJwiUhIdxDQGAsclHLTTBcSlABAStWnang0dOeg471ONUzc4pgawfsTKHOsaen1iqBIFZUQAkoWhXwcDkCAqVKBGNDEkJIAgVyv/77PM9a69l7v+///THO9Eyn7fvne/feaz3rWWuvvd7Ld83QyEjOQ0PJtpxy4j8Os8mwy9nGLiQswAYC2DaXldGQ80hncsjCMmzMVenXjqNarMUFwJAHVaDO68OhkRDDUHg6HDKvioyYltltMEXblAcfYQ+5LEfpCqjBNLLaJQlZ6HeoxOZxBUohhbM2/hJvrIMtFnAyMYbOAJLCE/xoPH5XhNpNx8gpl9AB0TaNVI2odN0OCIspAhvDwOYJiHLh6+C2Q6jLJjQIg6Sp1vAh9n4WEJNsIrzBiyj7MocwG83Xl8hyLDkZiw5g4Sl0eZG0yBrIWL2Ga/CcxjLchXzMo6C1UbxlVpiUy36dwmwZa4Ka/AAwZgEOCEF8UnHcROhqKVvFIBnQOgC7hYkzDGyH7IxZPIAhSH5VYToszoJR2kXGoJpyt+i1IB6+OXd8M4Pw3UgMbWIGK9toA96RMtGtnAWlBBCoJBRQSypDyRquX7cwO1QaWKQxECHyYhKM5TaNQMJBEeBMq/z5hKrKJ2XMZSdOoERRQugkqOoLECSGBUenaCPewhPOyO94eXeEMfec50Lo66B1URQ+xbDPqEyjVKK6/HILJnlxgBt1C9N5oDFlg7fo3cKtIcA/SUxNhQTo2ByoUMYg0Nr4tDoG1VR4qrEVbuNymcnlK+Q25GKYsgoLrGdfmQb3ih3UNW7EA57OGJEbFnItkAB2bENJ146hcYwp7GyRMwIdZh0tW/HJxBqZ+/NuzDv4/KwcoJANBVFXKoNorXFEpzALrFp7+NxLVoI29JAVpqEcWiYQZDQ0c1dDqk7IiYuzo2kMXN2xwtwiFIbnrmI46a5fBMt43RCL6bYVoyXUpIzOduYt7IwkIGWBmmiKVbjTKULsyln/5F/sdrPTRmkzaQXhxONT4A7wm6wmz54Gm0G5osWs2djBbGPxUGgCTcUH8olR64NK84xg2rthM4qYGWcNP3puZLDueruou6/WXbli9gM1ClNCBip46fhRLnHT0spRbt+wNDzIjSkqupmZs0HlfhuMp98SWwql8V04jFtxlHUIpC4WrZzOQh22GpsYMonlruYkdH2AgINakMod1ZaLhlAF1qEMA2+wb5S1W3sl2Z7oQVE0MvAFvwk9oNCzHH3rFKYJXaMzp6E0D4Si0w/lJTKROWWjoEBKotV3IEejCtNV3LdguRokqxa117vsyrwCmp5z+h7AmGwnAQ16rK4i26UrGQ8CD5L18RrvlpMAi7e11YJSNqiYwsYa7obdeEy38jEmwO19D7DwLCGzkWAMAqoV83CDaczUpY+CaIUdBQft1gL94PDCrFQsVbfoYOHKxtgVry4zcci8cUPNg2Qm7y+Aw4o/G+qmCs6GhmI1ShbDiUWnM6FfcigqdKbvRBIhN/ZdsFmUxBPdQMu8HYU9Ehf6fqpMXGzDicCyp76TnGIgRJmMwvR46jnJzd2ud8KrHGP2wNoSG40E7RmTBCGX2jjbeKWodiV9UpmNBq2tKXynRAY/0UN4tqdVriDjaUhoKFkj7jxTJBkZgo7rwXHxOWZh0sg3TzgXAM5+zcJUDj0ID1Lx2ajj3yYDp44z7+7cZY3YeRlPxKgOkUHTYSu2Ham7cApjkJaiYhL6rk9pq4WH6vJfvzDlpN86v+9189T4JByLyrWpUnEIjzHD6gOQqDbmahU9JdKGMa+c9dqE4GhFrJw0AqkMHYupy67ptMBRCKJo7UocUsq1E8RKSSlLjbvxSduEWBdasVAi8/DhJ7ImoUHUf0mDvFwKUtmUuBNvZyLuQG58St1F5CFX9OFPuGLNTvg0cIPzlALQyDqYQu6snb1sBmBcVc/Ig6pL2k5h6moAzuacGfF1Hcl9TUDPhsEayO1wxhxQmJ0ZdQfFAcSdYIw3SNvMRfBdu+BsYzdALCTkUsmuWVJMIKRYKelLp7E1LwKIkO8Q8QjGmCrnRa+PCx1d2UUFaRoeV9DQMta6XLpX9Fp1ZoAcZTExAAVhCvdpourci89VtOdcnQ2+TNlwGOBX7YLbGuSrMVf2mlk0ZDUm9RqldZ1q11oDCtL4dq6eAsMiQdLV7/ltxS1jX96OSUFsI2szIQ8tnWRm4gVDkUEgs6RhUE5OpnT+9j0rJVkFIlqGYujw6Y3sC6rp0BmHvlwjKGRmyO75qcr+3mceHja58zXm1t2B/Tg8qM1pBI9hewaDwg5uDypiMxvCK1vtSekxR3AS7kYrO0KRpWY4VJI62ltL3Ji0Yk9TmUifo7WK1QGkjzLCBqpy8XvMjjsNGnSHri9vx7Sl60YmT6IVpB2zbyb/CoUJv3Rda0LZ88L0hURp4YzJM5aelNm0mmlqOsalAadFfr7LRlpUt/uh0JHcl60G0cm464UcuLSFYnRHdtT8WypMvFneOx3F3GJC1mixqOpOVAVlRpazAYkzk8YOC+AXKKaqwQek1DLGTomO/QssG8Parrpmr1lcU2DnUMfasUv/GDIG+W97RNrJBH5G8s706quvpJ8vfiY9t+K5tPhnT6Vnly9P69avSzt34swYIY0fPz5NmzYtHXDAgenY449Lr/uN30iHHHJo2mvPvS0kzomvM7C4cftkZ1FKaB4UuMzWKDwuj9kRyhhHsoDxgK216qilkHAMmhbmEEhMiNEYNq4XMdsuSzVnjw8SBVlACwYdXJnGKkzYcQPIUmIxDYgqSB0cBgZrsIZpgGMWZk2+xQwTW4S45HDZbCtUkBQ3pVNDaXt2hqrmfgcDIlySaenjobRt67a0bMXy9PBDD6WVzz+fNm3elDZu3ICiXJnWrl2blj+7PK1es8bkIyM7i4dx44bT5D32SDNm7JvmHj43HTZnTpo1a780beqeKM690ht/8w3p2OOOS/vsHYXaLI5HjrkjxuHyOqFFFfwFUcYuYeBFFJ0qKgJ0DC+sFIVEAm9bmDy7H4zGtAkrNL5mDaepTNEI2e2SBYOdFHZxKa8ctVwq0cDbkyaAUkRyL6+9eLpiLo77tYKzfpOM0Mmm3iM5aZE7xeA9QCNxn8jZZJzG2K56flVauvTZtGzZsvTUz3+e7lr0rfSLXyxBUW4azLOb0nHD49M+++yb3vKWc9KbzzwjHbD/7HTIQQel1+KMOnnyZDiPnPI5KP4N4QkWt7HmQjkfYeU2NCgCDnxzDt+7GnsbuqxrUwlCayRVOnZMBNYaYSitlexUEa6TjxbZynarMC1CWMmQ40JYOobCzlEKo2BbY0GJbuytK1wzEJcOhg6ksZdcgVJVZB1jl7IWtm7bmrZv25buXLQoXX/9gvTDH/6wia52h3FmnTRxYho/YYJdjvUSmRBcGN6HjuDZ0o7t29P2HbjM21Gm2wa/0Zw6ZUq66KKL0pVXXJlmHzA7TdtzzzR+nD9RshDjfQXF3UxPrtDuqgw6MMOaxIiCTUc/FXIwaiHMqrPbdUwBNZCQLnNqlivkobI1xYR9WRAE/smKuP+ghelJWINL81e+cnO6/dbb0jPPPGP3jVs2b+ksBgcTJ0zCvePs9Lu/e1k6/fRTUVD7o5gmponjx6WJk8ZbQjes35DWrl5rZ9wHHnwgPfDAg2k5bgk2b+ny8cnT1KlT06yZM9PMWTPT5z//v9MJr38jAhoqz/zpsy4SR/3tX6Aw6YBF+W+uMJUZ5oTBt2PJ2LZyTXJsMS3GtHFluwe5/QNxw80jSgd9FUPaOSvSxI5RJ5QOo5f/+eX0/e9/386Qzz67NK1YsSJt2tS9ZF988W+ns88+C09gDsZ933DaY/Ie6bC5h6f99tsX95KTcdYcl8ahyPjaJu8NeZbcumVr2gge3ouuXfsi+hvT+nXr7Zbglq9+NS1dtjRtiUJlgU7EGfikk05Mp556apo//9x01llnp3HkixTUuTU5sXxg/pGSetmUFbFhadhK1qSgIWQ3gMVhkPdQuzW0MNoDB9GAzs6QyFNxYWvjMdscDOMemIE4YzrAxOWU3siCrpWYCILqCNY2cFTnNcYOCEEGkQdcp1uWxPTVqDeEQRBE4wzAR+ZlWdRwyD4T8LPFT6Uf/OAH6Vu3fzPdc889xTmL77WvfW06Z/45eIKyTzrttNPSCcefgCcwMw1TuDgKB1poLQMxw7pnNKshK8SVK59P991zb3r+hVXpkUcfTY/+5NH0/MqVJREHH3xwOvHEE9N5552fPvCBD2IhwSQf6hgfdjEXW20MNdeSk/Dr8TZRY10LVoETa+sdOAKsi07BuJWYCof5Gb0Tro2Hnk2OXWuvvLVSpQ+FyTutZlNhWmBUgcoQlbxlN0etNwcjfxKi+tUNN9JRHNSmcQ+QmG3RAoN+j0NDFjk5OOaCquiDEI0DNuMS/ZPHHkt3fefb6Y5v3YGXfX5mEO6OPfY4OzOeedaZ6dLLLkuz8WxadgVUOh6LJZWOsVniI6BycIXG43HgTjyLv/feH6W7v/vd9Nhjj6YnHns8rVvHl512pnG4LTjqqKPS1Vd/Jr35tFPTPjOm40w93ri7BzCzQT59yMUcjdoVvyVRUZgY+ysQbmJSYUzk+aqErizLWRWW82Yoa2stxsiP1q/UOhDOZ5qmVmKZ6ZKFueuN+ubRdIt4AEGF1V7h6Ytoz+948NEh1XiAAxPh+XX5oyX+RnZmFABa8pFyJG/YsCE//ONH8kmnvClPmTqV6cLHIIfyHnvskeccNicvWHBjXrVqFeCwo5E2c2+7Glaoq98G7w7ptPi2OIzTY+N4x86defHPF+eLL744H3rooXnSpEke0/C4PH7C+PzVr96cX1i9Km/dtj3v3OHBkHKn0yq6XbcMi48Bm4VHLnVajGSyVwuMumpbs4H9ABplsXZky6E+cYr5311h7sTsRkZ2RNIzFndbvuPORfmgQw7JEydM4KtDVgTTpk7Lb5n/1vzyyy9n3PdlnLWQEz6iEpg/S1RkS0lja6pami5xqRclQPxnsVRDHjSS4Vl7xtkSB8WCjHtMi4kHDO5aM16oz9ded21evXq10ZGZRfkfqzBLmUYClcea7eiNqbD12wkUlypWs2lpDjn9lEeIAkUEdbZohcOkg3dG5fjCSe+S68yH8c1fvjmfdOJJGc+isfh+f3LiSSflaz7zZ/nJf3jSvUXBsKh3cvV3GFH45qzE7VNwBTBu3cQYdjYXYmlHnG8aOx/28LXqhVX5wYcezB/9bx8txckCnTt3bv6TP/l0XrNmLYydh1TlYVKPIOhro9CqxHpFzI4tmAgxpoxbI3JBb0+cHqEqMYmjDzBcz6ihlcZby4697tZ4gkqoxvBXdWVCykrgfXfTTSxhLVL8rUx908VAMk+Ec5aVAqPkYr/jjkX5gvMvwJmyFuWFF16Uv/Sl6/MvliwppqVg4MAKyU5N9MZNMxDraIkjHK2JWSwadFTBBwB98Uy9devW/MQTj+ePf/zjGe+n48bLDyC8CJ+vvuaajJecMs+wOxCXXxHaWIK8bZSo4t8FfbHHCEPraL7t/FrS6AMmuPG146CoGWvtDV0FMrb8aj41N3gXxAORqraVw3riVdtTd4bCoFWQ3jp7lXasfEAbsxM2xo0M3bKVJBXhiF2af/KTx/O73/3ePH36DDsT8T7uTW96U77t1tsyXs6BfZeQ5s5FeTxsYQ1pPWK4aU7SaG6uHXvf8RGMOFnnkR24xKNAn132bL70/ZfmfWfOLMV59NFH5y9df33Ga652b2pndAUytisLrR5wmk+NXTFbTJ3ZkbTO0F04Su40slYDKc3a3FfJAGDJtflyPL2abzR8e66jEqSyRk8B9Np26EhIzKv5iD58SEyDCMBbtyp7EZrAB4qxowqDyusonoFeeOGF/Acf+VieM+cwK0p8wCIfccRr8t995e9qUbazBokvIiLi2RIc6MADPWKPRossmSl2sVNcoyA2CduR2XgZMz4QgjuIHXnLts35/PPOy3vuOc1iHzduXN57rz3zfffdlzdt2myxRFijqE1eqbtxMyD3WOcCEcV2FmYspvddid+EDjRZYAoWY9skYMvNTSIGH5s8doK3Ms+tE/y7KUy7P0Q28EJ5fuih/5tnzpyFj0wO2+K+5ogj89Wf/kx+9ZVXrQCUACWnPinhQkFaLuWeJF8kLyK37aZz0KgsbF9pTovnvAP3s/bEC8Wp4l/x3Mr8zne+02L3VxBSfudvvyvff/+DFppVUJ+XY9LqeEK/EzcHBtFBSECDwYAIQxV5CGIy1kgkLFrbZGwEkDQc5lryHjyGo6R8b7cJqQbX92OWPWcRb50QQGTgc9uyBVHBShWC1nuHiAQyGq2gsrhghz5x3sn33ntPfv3rX595puGiTsWz70su+Z28fNkKFEGzasDb3HnfBjkvkVbc5tPp6YEWrNM2FhtC1N260hJ6AxKNccWcVIyKBYHk7du35zsW4f74ggtKceJTS/nGGxfa/ajPvevP3EjENjbPb2RZASi4ghcqsgq5IBFmGRcT8LNfYpGBC01c5hZIcWlo5u1OHJChMKmp7mqvSju2LRpgsw8j9rW4Oum4PibewfsgUuaxBk/xB+MyubYPtC+k+zdfMMK7Kfm6a68ti8nCvOCCt+e77/5u4P2sxJnZH4MjLy+lDb8FQ1Uz1xJTRxaI4HELR8q2axd+yWH+6llS87SjALo1a9fkv/iL6/KhBx9c5vM2XOK/dccdZsuDUHOgrftuD7yIo+MnYK7a5QRJSVZtilyeqq6V9KVuVZhaqIjbNvRs7MlP0cnQp1wWpuibjqDWYmcTsRbBYNApTPEFTsRmC061DX10xeVnMy2eTZcJhxP6pS+eDBfhWfhbz31LLORQft3rjrVn4DvwjNZsy+WS8RpL8WNRgId8eoyOpy8BmNGbgfVGzSUQJifC50AT9vuFCTqrLcgR6yM//nH+L7/3n0th4vOe+fIPfcjeDBi7MKNgGZmFRj8xf4XfBqW+dGwHyUIoFdu6jZaOlgC9S2HDBlw8Kw8hBJ5jMVRwZXWZEN7GIluyAxlcFkxLw34Yy7YIDBfKxoYxsfgi06X1xfXFXrP2pfyxj/0h3+mKhRzOf/zHn85LlvwT3PHPF4y+Wru+N43ZDtzGAHgRdGdC+xZunBKIPMYeoyFghLLDwbQdLyP9CLcmBx14YJ6ANwd4BZg3b17++te+jjk0RW1cIt6hc2lnnm0knfkrcMXDVjGhldoi07hCilWYFHxRsCNl6RhbQIqymkDULcyWo8LGJiiYIMcsbCK75OkrFRhbbhr7qCMycrwzw2fM5gvltp1ng5154cKb8umnv7mcXbiIt91+e2GrrNFD08baeNt1V0Rsm824ejKpxzCROlqieLqsGw+mZSuW5us+++f5wAN5SR+yAn3b295mZ1S+tWm3IGZSvXivljrHvnU1gxBCstWclCcls3qq6CJDh/jOJqUIrO0gRg0GF2aQi88D1EgcDpKORyEjsgYQodtWllQKJ6QniQhZFHQRlSOdl+RYFC3OZe9/f546zd8H32/WzPyFv/3bvHTZMnsJhpc9u0IaZXWuGOixOLH+gF2EZTa9EG2IHXWDNhWA5ljmAYPCN2DexG/dusXemjzmmNfZQcf3+M8440y8VrutvK5pfMDWP86Gf7xK+Mw8Lh9VHBAIgI9Bm2KzlgDA2OfVS7I6l5CFLuDuX7KW0OlMX4Kk3pzgjFmEZNLWOgbAnUup1kHSFU6KARn0kCVb6dXRRFuM49w/cXVeSCYLE5c7PvBlsXz++eeVsyU/GLHkl7+0d0z4gQ5/YuP2xh/OFYO3vlw1Mkp9Mz12xb8Urb4nK5bFKPIIRV1MysRb52k56SXmgx/8QJ49e7bN8Zhjjsn4hJR9OMUOUFSKz5F5AY9dUIK4E5fNZJRPxtDZHNakApz2p1i9JVGdS+gaog5NZ+AgiTRVC4wD/LOXi0xhWIcWA8gUEmXdTdgGAZElGsDKUXtd+xhJzXbAJvbK6EBbEBTlls2b8403LMjHHXusLdr06dPzO97xDhTrOixQmzjv17l2GT2MNpgakGJg65twAwLuiIAbnZAOQgMtsCfO7ew+Ms56d911Z5735nmY41CeMWOGvc75At5nV2Hq7cqxCtMjFm+EZRVJTW9zcJMgZYA4z6PiZevSCjeBI4m2P8lqKyeUqI82uriUsxebJdElkgauQfUl3bFGoiye5LFhqphuTxxsZe+JiBt+cNii4az56quv5tNPOy1PwTNW3lcef/zx+aabvowX2vGJIbx4bXa8lOM0Ykk0cs6Rf2JX25dYAB2UIwbgJJKJWsnZDtwcYPvIv53y7MzHmBl7trdZ3/e+S/FWJd40wOV87733xhO7X+AMyffQ8USJT5bw0oQORs6o8wcOr0NImwPWQ/IYlIVBYXp85IB9efiYxFUmLrKoz7Y/lK6nCDE/NFq3FlulvZ5AbEdv0o6tGWzX4sXhSB/5AsVl2VKOPj6ixo+tzZkzx4qShXnh2y/MO7Zux70ltEgYHx2PRkdZlbsHT2Mbx6C+sGMmvW8kA7YDNwGgRKxWlGwxO/bxD3OgaiS//7LL8KoDP+DhhfmPTz5p73RtwlVj48aNmS3n7TPzGfqIBORnAOqoHUtGeXdjWDxIOpvFDGHbuqMOzAZy2ecYjcS3ZLBhQW1Tr/+Jc+mx7vZajMblf5FoPgEtDn28uaqKG5hXqbjatnAQaR+0gee+OQTb8O3GFc+uTGefc1Za8dwK+/mAiy66ON16262IEz8qwCXEZOzrDnLJpeU8bOyf6u5TeyySyrAvbXPh5WKILpwpq1urK3J0IpZ2khafYfzz6tz//u/9frrhhhsSzpD2PaQjjzwy4cMpxk8oaThfbvx+On9w4fwLzk+XXHJJ2nuvvdO44XGcuem5cyjxVeZ9Yyo4dXwNPHeOwL6zMIGkslnjwo6Oz0ZqA4ZRjcK4WehSi6DH64ZQ2qQEhouomTYGYzeewBV4cR+djjMpXWgRsQsHOBITThrwPZTG4+sHxoeK498a/PDAN7+5KF155R+lF198Me0/e3Z6z3vek6777GcT7r1skbhQtlglEC9G89gm1VZJQSketjAcJIamiAt3TYV0VKlPNm4lbz6sRjGu5wr6xkwZJz7h/NE/+GhasGABvuu+0X5uBicm+7VGz1ffS0p77bVXOvyII9LRRx+V9t13VrrwogvTvHmnp8kTWcyRF5nFHJjXNmD+4jFVoYZKBgyWUh83WaXCthYpQSlMCLim8U9qozN/bWGaVjtForHFi13IvemDAFY0o1RSkBDKGHakXDH+iwd/IpPJx+XIJjGMX7uwb7pYQQ0lfD0BRXlV+u7dd+NbjhvTufPnJ7wzggW4KO0c2WHfYvQzCIOhJ7T2L8YUYbPGFiAELsaeOI/HOtiFJIYxCjoKXSJOS73FHgbWdAozbG3B0ecCqzCtD2sbQ/e5//m59MUvfjH9DN9X4pfn+MsfkyZPsu+7D+O76XhN175DhM932vfbi0/YTpk6LZ177nx8E/Os9JrDD0/nnHMOvpY8EYEyAGyWWI/b0ssdVXhE4wPsu1ny0W4VZmFwEvHYOQEi20LY++9UpN1VKzpiGHI75ogy17C1SXLcrkYkQ5aWA+jNEkLKuRjbd2xP+ERQeuWVV9K6Devxve8N/t1r6Pj116efeTpd/ad/mp7Hr2jw8oYP2qYrrrgi4YkBn9TZJdwXl5z8lTb8HAycyA8E2OIYlv+I33U1fol9dhFkCDUP18mSbU8TAEmFZGrawlTSVDM0Y44efuQR+yLd/Q/cb3Obvu+MNHXK1ITXb63IeGuzetWqtH79+rQBZ9VXXn45rVm9Or2CL7yp2GdMn5GOP+H49ImP/2F6A77Pzp+0wbtKSI1HxX0egUf+szWjBFl0tcljF7PTipfZVHnYGMLm3mIhgN4g7k4EkAHH+1CzKWJ0GgOKpXc/vvdAyehjmbeuTRZq4+gQ2VJYwhkAftQPv92S7BuDW7dvS/iETXphzer0wP95KD1w/wPpiX94LD3908UJXxxMW7AAw/gRqwkTJ6SNKFZtV151ZfrUpz6FReMvW2DjamrTYYl4LQyoXOtB1QPHx8WydJzItA4RgZU8Ra3OzHgAmVkYwHelCxkEsivakNnCGMdw2gkvdpDxCoLbm3HjefUIjpijzlr8sa/ncM9934/uS1+75Zb08MOP2EHNnOJJVKBT+vxf/XW64MK3J7w+at/SZIralDk9I2Zh0hcD4zhOr4WJMm26WEMWYouL3BIAarICaextnf41CxMZUKAjCIZTxVO+9OSTT6abbl6Ybr31dizAzrRl81b7bvY2+ymX7biBxy9f4BfYeHHnpjMB+yxKPmKpqaU4tljE/w+FKS/mIdyYbHcK0385xkJWPhg2adrClM55oQcAd9+2wIZFL250rIjxwRX7AYZNGzakLbi0X3vtn6dF+Bmc5ctXKCFp1r4z07ve9e506aWXppNOeaNdhfCkHi0YScqH5bAtTMpMwU5sygCH/0KFiYVtWUGMof2L4MyVh0e36tmB0w8w4u0RmknnQDMAUk0/2PHJzd/8zV+nx/E96yVLluDHrf4Jv47xnLvr7XmkcZHoig87/hkqnnFeddVV6Srcc3pqQI4EK5YIrbBxLB2FdgQXbdUVXJMmv28dRdBYhz1s3G94RxLkU/5E634Ys/Na0/aNHYJCQC7xu2u/9okjgMgLaRY/9ZTl9q67vp0W3HAjfq9pCw7ylA468OA078wz03ve+1784MJ5SCgOeRhwjrSzrfjkqEhd1wFUUSeyjr1jWpZ+CdJz5+UizrpytKZNPqpv78mAozDpOnIh93YGIA429LTu1XX43cnF6dvf+U6686470y9RlPwBAG24v0+HH/4a3BO9IR15FF4amYDruG2ctieOhcmfhhnGApwx7ww865wXYSgwL87ObDBwa2FI2kFYjOYqduXnZ1pkmVCAbJKyArdR9niljlYR+IEOYYFL40BcwW2TmkP2WUDMd0Gz0qHAwroB8sKNWJ458c3Q9I1v3Jpu+vLC9M8vvWg/bTNrv9np7N/6rfRHV3wyHTF3Ln6FDk+KYFEPwOAy57YjZbMV742snhRqcFXNk/LoDTz2D74xqYa1TtDtBlqP5pOkMFUem2DoixrjlaueT088/kT63nfuTn/5V38JCX1lvCSEn+2bvk/Cd3TSlCkT04m/eUo6963np1NOPTlNmcSEYeMqRlE4J8uTpcZkGsJ3nJqKp5V3QIFXcMJpLLqQa2YctnfntgwmbAisq7H8iFhyMAZOErn01vGlMA3kUfiMcZIzCEfihiVwhLarSwGX+yX8rtL/+OQn09/jF0FW4TdA+ct0s/ffP/3Xyz+U/hN+ieSggw7EbyjFS3OWK/Ga8254HEnNvjl1YRGTA4OOdXskFqDb2+zqOwHs+V8rY+Hu9qZX9gsT+YINHb05gN+czJ/73P/K+GkWhsSXytAO58mT98iHzT0sv++y9+Vly5fZ1wj44QR9QIEfeOU7GxrzLcdteCuOY8kZq/x4ixiso0AaAMGxEWM4CcZoPUOcVc1Sd+SGLc4lblD8NIlxbEGVjkMKsGSV7+aUd3RKhotZp2P+7KOBYqvWl19+eT7ggP1tDbgOfHz9a9/IL730EnIBHHMCNj52uQkkoI2x8wVwjhiK0LkjS5Z7h9MPpTiCjMX8BsxULjfx7u8KlZjYhocIjLFe85lr8J72cfhplIn4wpgdOuhPzp/4xH/PP/3Hn9rHvPi9Fws+PuJW+iOU+2cwTWaTgp9oGSx91Ad0fB8N/+ojAATH1tpLNqjVzKhrKevIrVpc4TG3Hms1Hog0E+evXoSsLe7OC1Hx0uloXmyJ1R/Lk18J/vBHPpInT5lSivOQgw/Jt9xyS96G/OvtXFrucqshOszG2MUitEMLF2FbXIoGOK0XCRhjfIiDpjVsM3aRyTkuhubFwDQYc6Oqps3TwZ9EuWHhjfnkU07OU6b4hy74+0HHnXB8/sIXvpCfXvx0xk/5mS8Smys7cuPoLX0fW8Q2KU5MgdVYFXO/pQNPjMKPceGoXEL8yrZn4kOd2TSXGtvu8FncDbC6YLzMgfIAkJRsy7ArhFX8Vfjjjz+eP/zhD2e8bWvFyW+W4klkXrp0qX200BnCjxbUXTR+6BBIPCyv1m9AVV0cC6KIzI87s6mgMAds4cQ1cua+FYC3A2xDFD4sESzR9evX2U+hnHnWWRlvlVkS+AmZM884I9+4cGF+8UVcPvipl/jkC2egS7ZNOFLKifjs6Ah9xdpORBDo7I9tAw1LY2Lf+YKgD3RAg2kdFWWHQlL6xpKaHwvJdtLWdqAYQgtFsA6I86kPcy4wcdh8GjJyISPhn4JlHy/K5+9973t5/jnzy1nz5JNPwUcJF9ZPZ8UB4JyF3HjE2cbDvp2VgChbdSv3dU0AMjV2NOX2/wAAAP//nazINAAAIldJREFUxVxp0GVXVb3f10O6m3QSM5B0giRAqHQQ002GxpABSFmERGnIoJYiaUBjREpKCv2BooU/pLQYFBDFiAmWZQnEIpRDEUqcIGoMZjCR0DFjkwEI6aTTmfsbjmvtvdc5+9z33keiqPf1veecvddee+9z9h3e+97roUzZlou/ClruGhl0GTLtpqfUcWoND8zy8pLtS8uL5au3/Ef5hXe8o6zbb78yzM2VAw44oJx11lnl8j+6zMwWl5bLktmQ3m2XIGNfvGolsXjSocrVIU9hDOQhr8ACxDgNhTNsxQPXKRSJt2LNUnoWrdoqaAbWq/osD6F0OR6XTfXQGBRvdUorRjh6AfeNb3yzfOITl5dhGGKfK29729vL3kcfK8tLS2VpaRHpt3mscxHcxgh6d4kROuznzWOGJDqOdRvhKgaggUIJ2HKrDqAZv0Lpzs2yGoQXJGDFwGQWDPfQnofLH37i0jIfic/NDeXUV5xaLrv8snBWoijpLfqYkJagImR0jBevGckvmZ6Y6TvtJzTB1dlo4AbVxObGI6g+qrJKYtbAQXwViyu3pg9QxlZRcBmJG7rK5U6eCdlvNrXngUcoydZyXy7/fvNN5YjDN5XVq1dbcV5w4QXl2q98BYVZysLCQllaXIxkxr5inGI3V2nsEY2jmh65sz3rwkSU4dUKQ5OlSNjapLCo2ll2+WWXl5d+30vrGblh/X7lQx/6YHniqSeDjw0mizsZrL9SYVLH3dPQMc/FrL5jR1rzx8jTrsGIHBdxnnbxcnyyqgyGAJYLCwMBxdZa8xPOosmByJPPjJs5zDXTibNV9DlZ/q+P3nJfLg8//FC54opPl2OOORrrNFcOPeSQ8iMXnG9zvBQXiYkJb1l4GBG/uYq+5QKcD3Nc0yNXhv0VM5FFHpYEKfTqXfiIi0W8eTdmDnxFHnpwd/nld/9yWbduXS3MD3zg/WXXrrudm4ZxyxYHC9Nv6/AqYdC7G5ebyvzFIWKgvO0eeYbVfgNZ6GH+DPqKwlNuc1OZnSPi6AtTXnLMIZOKbd2kQztN3gvDqkUU1jaPOvFFLR3HvCp++8EHy0tf6heQVatWlW3bthnULxRj/1BlAg0wp8LX6TUWHhQX25W3oUN0jrKhCClzkCQy6R1BywBRcJf+/h+U019xmhXlmjVryuaXHF/++V/+2Z5bjCui92ScviYEUsrdpzxrxFh6WYXKJOydw/E6GiThmrxlltWt73rim6yPSVzWjkERZM6x4jN2JKzzA/n0CKtBjcsljbRFLo09dDkfYIzp9NNPK2uxTnze3HLCCWXx6X2Q4yKDqyYvIN0mahPGACQWq7G2OersnsFgyAs/E19n0YO3YZ2e3sonkMHhoXlxqVx4/vll4/4bLdGDDjqovOfX3lPuvvvuiFiZKSlwSdR3eycERUxtkVxk9hktaPBJldxIZG3lswmmKJAyoN9w0nKlVYO2GBqWasWcu0ZnypUPists4UCvGp+Zuz/XiW9SpqiI051JMb/9bT9bjjrySFuvzZs3l1t37ixPPfmkvQniGyGvF3F7NJoPDwHstjYYWZvG08wsmBaRIAODE7F6bLstFDxxbMd4FpaBL7Eo8cbnyaeeKmeecYYlyTPwmBccg2eZh1PAnRcfKBmOct/GlCU59TWS3CO4bT1qNq5ZoBe+awFUEnTMb8JgTDUPYebjFBvVBgiNj6eLpiOd3PgnHUHSXu6nerAO45saYygU99//3d+Vs179aluzI1GgH/ztD5VvfetbyCuK2K6aYmtt1xNZ13o8FWcdHISx6Cj07dkVZuIxXnA0Kifkg/Ii3sHt27ev3HHnnWXby19uSc6vmi+bjz/OC3NpAYZ8lxdR5MYC5fMpthq0D2vskrOtwtwL/NhsNO5Ro1H40HJXN/JNuDBoLRUcpPbUFJ+4x2NyxC5ItJNiSOiHDY16RyarsRppT1j5xqahIB1r7r777i8XXHihrdkhBx9cLrn44rLrrl1lAcpF808Drg/3MDbvGkFWY8t9j6daWCf0XbE7Dm9+BG09SqZtQo71VY4OP3tcRHHu2fNI+ejHfq+86EXHWpIvwNXyPb/6K+Xxxx9vt480gY2Dk4+RCdiO+zFWgGkSZJJSAsqkwaOFdalU1oqvtm4X1lVabZqkEwnPdnKDtOYDrYFDNgJLZXguHOxqqjSMgdNFSRqGuhFZHlKnnXLCsdMF9yeefLy88Y1vtDXbf//9cfU8q9z2n7dhXfl5pn8e0QjCmH472hj1QnqbwNmVmI6lia4XpmfnuZr5sztUWnT8Nr5U7r///nL2a19bDjzoQEvyzDNfWW684UZcSRfszOOzTQ0m9UzaqwLGhdGeLC12GIgvjZ0myEIuteZhos2pK44ss/40xTQZwZJHawEkcdUbcX+AScs5cjd8gzkrC8PANg9mU8fhq5pEHOKpZuTH3Q53s4suusjW7DkbNpRTtr283HrrrX1hahJzW/lTZ+RqYi4YGjCqBcsibOzjIotRJMGrIdtG2HomFyjZqDD5BmfTkZsKb+F8vty+fXtZwC2eV1T/i07P249E7N6D3pLIc8F+3cwEhwQwkQAa5FY6tpLPkknPduqiOyDDJPGyyZrsZFq/YWuPVxVLmJK2ud49KIlczHU+zESRCO88NgK3fza8VHbs2OGFuX5DOfGkk8vOna0wg0auJocK2KnrUXE2w15CoEwZj39c1CSeRwfKJtmYICZjaYEKJOiz+nnJv/Ouu8qB33OQJcjCfP3rX2864t1JtKSPDRKyxLGNTOgK09pYjzkucUMsHj+iGrvofTaKTElp8ijW1kpJciLRVj/VlrOgV+OTaZM02qlOKzH9BBb5mlimgdH8G1COaGZ77QTPZGykIwcvKNKqMNevX1+2vuxlKMydxifX41a+2jwHIsdDPzXZUJhhY2vwFQqzwVfqKRVvGT19sWbuvAuFeeCBZQ5FyZ2F6bMT7j2blcibLkyaYFZP8YQnLqYtKAjkj1zYplFOkzk6HxtKvdbKPyXPcJNxhkumljr0LQXhIh8vzBAKz1ZbJ/NBJwLO3hcs4BkSTvhSYW7Y8JzyA/iQ/dav3Wq+RTnRGiEOmmMBxo4kVyt9jPPQPsfk2cLEuVduodjO3GIhYKSzxSYKV607/vOOicIkmunbBFRHTi53nSsJow1vYJkMyiGBwED03jZBJ++c1SkYSWPoDhJxw1eVRaYoqZdmOqVJW2hOSKHM1IbM5pYJEIK27hzTqCZnggmeHh9q2PDz5kX7e/i+sg/tm+IZcyO+aHPuD51bbrv9drsTGT+d500xVt8en+eQYoINNSp+G5lNKKLRnNnHRT6Ahlt1lPoSZp2B/VATjuB4O73zttutMHkb162cfhiYB5cIkiu5oFa5mnvDkMFf1OfN7cJaJGgrR4B9HIpEIJMk6rsC5LZH2Cirp8cqRDM2yaS4AdBzDI5IQNDamriO3G6cODkM19FC5oW5sLDP3vjceddd5Q3nnWdrdvAhB5efuviny927dhlOj0kdg9zmqCSrDl2gozKw+anYiC94+j9JmseYzmRQM8oyRQeZ/JtDDlCYd91xR+FfevrCBBZ2OmtEJyq2klkLLhW9axrScRErrDj2Db0WUO1WZumSBe2cLyg6QWgEUJugs7oVqg5aRdw8SplZGkrSiiKH8ThDTdBkYad5G+Uors43sHxPYG9Mcee84ooryqmnnmrrtgkfsP/W+99fvvlN/4Dd16KxWK8GFnKN2Wrr4hEgotAQrfJi2FGYSZumTryWXw8xlYmyPAH5rvzwIw4v8/PtXTlvEyo0n8KY3OrIO5WSD+RMKvHKwjHUtDJ3JDSWIUZmK/LK2mKXalormurbQYpfPqzt7Hs/pkoidT0PjvhE3jJ0qpqJD4kAlDvDsb530fc8XR45h8x1DW/GNZ8go2/iGQa2i3GFPOKII6wwjz322PKlL3257N27FxhfC0e1o1iqxNOpQ+sons53g4ijtuj4x0UzDJrp9J6IpmnvueeecsIJ31/Wr19X+P3Lc885pzz4wIP4UgCeMRmo+ZxmmWQ4k20VTCRvbNvWpM7pvC5dyYvsGtNkbxqGpwF3iwt3hhaf7GXF9plvspppMQOgrG06xxiMMdW+G/EYQGEv27btB8qqVf6dzC1bTsC3jvbhrz6L2PGdTLTjrbcea5/ZWBy5nVGYgqxMXFHqsI1EH/j2A+WSt/08rpqb8I31obzitFeUL//j1eVpfFtFhZkLJ59odTLjTPMokhN16Q1938FGfJ3oGFcsO1HotIlInXv60TE90j2QoO3+5QZlILy3hmdcsU94Cp7OSlQEdwpZN2GLJ2ETrIZJWfVVrSCkM97KF8pufKH7+/GNIq4XP38++aSTysJT+IPIAm/3ngMDUi660upqSxfPdLMMcLCQYNQy8n4U5phuDBvrExMpU/ZMme/yH338sfIP//jlsmXLFkv08COeW3bg3d7eRx9lav6CHZOiN158tFc66k078q/wGEZ1D6Thnc8goTOQ8Qic4ye3odnpt0zSQWKghn4ZyESsHn+3kMRY0AG3Pu1bFDYnMVZo0nuA8qW2DztjhGDrTmKeQEhO+9wZnXvvvbe8813vLIcddhg+3pvDV962lPf9xvv8HTvetetiwii7fLIDc9JisZghs1aJhNrMpEuthYnDlMI0E6hyG2y5EdkIx6AXcAt+enFfeQzFefoZp8cZOFeOffGLyu7duxEon1f8mcWSjGQ1SUg9PCmG7Lj1pW1oWrq16/qR5xSZydjo8kB9tKlb+xkfep94sbf4vNdIvIeYYGA22Z792KRLoureZWFoUhjloYyCRCorLJM1PIeU89n/K9f9G35a8Vz7aQUL8yd+/CfKLf9xi0XE7z54YSpA5wgX5l99cx+DKkNHr2DoGwVpxq5aoTB725p8EsuZeKliAkxkEYXHd3oXXHBh2bjxAHuY5kP1X//VX5eHH1JxcoGChS12/5TTnuJiAV2f3FoXUF9cjOTfF5x4yZyT2CR0O8rq5j5cNAKbYQX2nQRVtwf0I2G6FoMWt+LwHHrrSEHGSVnnwrio8I7JfeSFFUD5U7Huuufr5cO/+5H6CcrB+FnFe9/7XtzNuA546TY+dpRi6VUKxAEtq4jN5pQ6bSJqsimFKXC02abZVaU79UmTpQcJDQrz4x+7tJx2qn8nc9X8KvyW5DC80/uSfURBnN2+YUhqe9pBx+wpS1dW5ybK9zoRVeJ2VDeUy4jthSGvYk0dBHXLRlXYdxJE3R4wYyQwWutGMlYwkPDliin2sk2q8VzIWAXovJDGs1KW85n/sk9+smw4YP9amPwc8/NXXeUXmbiz1bO5Omsxeg7gp6jutVNlHrKh0Z3SmrGj/ncLE0k9iN/8vOsXf9Fu5/xMkx8fffLyP4H8oRpwF6LyYegIVPs4qToBOcUgmsY3ngfNgWP/nwszFwwC/e4WZjwyxXxy0jWnbK+++p/KRTveXObm56ww+efjD3/4d8oje/cAxzsfflTI+OqE575Pvs1hFlu/CWQ6XsOJ4jSgo6IwjTqmhP20uapxJBW7WS2VB8IJwO0ct4NP/vEfl61bt9YzcuvWE8unPv0ZfBTBX1L2/nzSeO3kBp2yyq0vnfl2XDoCVyc+KLogI+Acd+5PZCRlclG70rHF5iG6fw6y2vshSQrFWsFO1cKoChpNbolqQilua6EVAyPji19NfPe73134TXW7aKyaK29+85vLtf/6r/iyt388pNt9nDu9j3DeLQ39QD7e5byPV6OgTcPvXJgKRUZqJR+1mgzNLBO7+eabyy/hqrkKV0uekZyE8847v3zhC3+DBECIArZMwOX2UZjKjllZnwA61NR634WmCHvoiScSrfomWOFACzJnvjrMdoJIFmMPN/zRr5jQkc65adiMLEZxJZVDKovbOFFF00vzVMXWUe7it3mAPf/SY1/k/uhHy0knnmjrsd+6/cpxm19cPve5z5Xd+LXkMj6z9G8ceaQqTEYz3hQS25RW5KyMESUAFduRJEMjiHflnpofHS9gspZo3CYIu5oMiVVzfK7cdsrJhb+UZGGuWbO2nPeG88tNN90EG79yylbflNZEKjVx1uzdIZ3GTg3fQKWMbDI4dqupHKZrNo6kxYxtTMbzaAV4dS6M2ePAuBmrxZh8iS8ggXK8cu1IxdMgxiYs+cPPE088gZ9Of7185lNXlOOPf4mtBW/jR33vUeW9v/5r+F857kc8vP37LHZzaSwpTou++aQ7haW1tNaDqXkaLtG0mQ8CNPiTpE+MBUAL6sRejWXaNAYVXHgJyUBd3Zfxlf0nyjXXXmMfSfifKefs3fo555xbHnp4T9nHLxHDoCbE8rIJsoBqJOpUXLZhn77zK8XQbBiboyqfbIzPY2cC1Sb0wrOFut875SRAcYEKhtqdxLgkxOXJxwlW6TymrKkx1ngZ1ySOPw68+au3lA988LfLBnw7nR8L8SLBn1Ccg28RcbOweGLYTasGCXm8PFyLz/Aah61SqHizIzJH3PomF0dz1wrTiDQbYjc6p6Q+nchtQQwTjGbPPicGOwxsx4BXQf6g/n3v+81y9NHH+JmK/8No4wEby0nb8C1pfH1fk2kt/C3ig132p22U263G/huaVsQeSZoWxmE7ZFxwLTqEfGnzEY6Uhw2Ddz9VK7i1wrG1W13WktqEdRLMH5nMLfW2U+8+4c2FGIuvwqjBwOPrpCbTR3SKn/PNHwW6E1+5z372z8v21/1wOfjgQ/BnYi/KeTxX/uiP/QieN+8F1tH0Y6EoHrSMzV4WA+MweMQUdpWA4/wKbNCKPigaR1LMUYqzBv8rCP4O5T30+U8D08YICm1SZ2zI+Ba8bcu1u7C4NNx3733D73/848OVn/3scPvtt8Ht/LBmvzXDq844c7jg/AuGs1979vD8Y452G/JZUOzQ0bwNkbZ5wBmPbyHDW6iZg+0Y04zDthGErSqItX/DwBDRJ5f7w/+yZJtiFxDCoIFE3egRQxJyQCSTGBo3hLRDUeAYG/BBaa0882HcSAKGZQ5rF8yLAkAyiCU8IIZlC4V2337w28NHPvyR4W+/+MXh9jvvGPATaosRj1XDm3bsGC655JLhlJNORFw+v+bZJtV6PiXe9dw8BJ9f5ms6BeRDkyoxiHLKREhlVhq4qc8dCrvWkev9qLhiZBNqdPLvM5fnTrQtEZPIq9q54fobbhj+8i/+0vbrb7jOUHhjNJx44knDtm0vH17yks3DD77mB4fnP//oYd2atZ6EZRanCyabmxUmW1IzLuytNlyocDUzOBE9lzxTFhqNY4EjVIfAC1Saf3iJSa3TRpE5pq+Ms4CoMyG4w2eNyXQ8YOuELmpH5u1nj8HIF/hi6+AB8zhvPuaGRx7ZM3zta7cMX7766gE/ybULwb333YtQyoD//mU4/LDDhu1veMPwk2+6CHO+bVi9ah6U8FNzj06VYWw+vfRbbJAbNAJCI0t1wkxDMw10o2FPhlDiiolQOpRrPeGG9iKArsNST4HbeA9HOaAamxc5FwYK6gC5/bY7hqs+f9XwqSs+M1xzzb8M+CuDKfAh/HDUkZuGHW/ZMeDhfHjuYc8dNm3aNDzvec8b8I1q0rUYRBecporiooi+NI0qCnxlP2qU0XJjMQLFBfZA+a3+Yd4uSZBXmDshlhZObpboE8TdvKJV143nbLVRWlbhribctMvsWKChALu58hl3BlzJqDUo9cRjt6sli6kMTz/99PDQnj3DPbt24Yr40HDf/ffZvF555ZXDnocfCZthOPSwQ4fjj9s8nHLyScPP/tzPDS984QuRI4sS12p35nFYEBDZBJj3nF3EGkG52mSk8LtD6NCI1uI2VM9bEZkHYJ/nMBAL41I4JPZpsrkISLCkM9bnXWGI0HFc+N7RMDz51L7huhtuHC7+qbcMu3G7efTRR22C6W1+fjWcLWPijhlec/bZw/bXbR+O23ycSCfamMcoJHpixP3GSMayHvHfG8VMmDGzXMmLFscL3qNR7D7jvX3GzYoO3/wZHty9e7jp5puGP/vTPxtuuOH6Yc8e3K4ZCVzwIoM3O8PGjRuHV77qDNy6f2Y447QzhtW4lTNWra0mp8YYWo+LR5DZCUHm2HzRNTIKFWa3AjZJaaaYuoaepHNAZqu3UmFWJDrj4Cvrf7cwGRR2/E19ePzxx4ZL/+jS4dOf/sxw/XXX45kPCgTLKw3ewdsErl271voekwVkt61Vc6tMxAs/d9KqOGLZ40rNSeWVwW2xWvxZCcG8VoTQXftqQgSMb946X83c5sSuKLy6GsRxdreBLdxZHvbkgQPfbxBRaYN95UZeiXL+aXgWE94ADftw5cQbH/ho2Hncun/o3HOGt7z1rcMrz3zl8JwNzxnW7re20kysbbL14oq8OFn/V4WJxbTZUvpKJxdxmw9oBUTHsJ3IJ94VAgYjC61Ohc8xNdy5rl+/957hgQe+NVz3b9fjeejK4QtfuCqja5+F0E06CtdSSJNZwerQMf/bWD6nMbGVsNXGjKbXAlXc2PJWXLfItY7VcS4/SpZaKMQyPbSIPZm4xSx/THNuwP91OWzf/vrhteecOzzvqCMH/FRiwM9d7ISmpT/F4e7EOakxYA2DdrRi4T37DKMs4opaMnZoNoYhPoHtohaQBGcVzVlhQke5mURU/mwRRrVJpLDQqHGmwqSyKbq+JQw9XTE2FiY+w7TJ/OY3vjFce+21w4033jg88fgTeBa9bdh5684B34gfHsOYm648FgCN44MFU848MBhFPBM0U9FfOQAjHbdK+T/kh7kKwonzcWVurhXvKHwG5+POsS980XDEEYfbm8eTTz5l2Lpl64D/KdhjBhXrkBs/kKGt1trFSij5NJHW227oTmBHEsomiVN9cJKc248ZxfkLerHZROBuma8/0KkwG2zKIkAZPnJIJjJH4U1xsE0imwh/Y637KN+TWIJuQta5Ye8je4cbrr8ehXrN8LWdO/FwvxdyfgyybG9Q8DGj3Y55xps9Y49bDRk8FfYgttUAu1YfFyG9gzUAD4Da2Qosn9tMwCNp+dICEGeBemJGrQlxhjA1Q7PlGyoVgQohiOkZOjxmgMjC90moeAMQgx2MtvERxmPwx51169cPhx566ID/xGx42dYtw9H4RGN/PFMybsvLHluYA82ZJYvFfRqhiPMg4jCRWbE4YWdY2hOAXfNiQBkR2TaTTrlCajmMythghX8oTL+gV4rqlJJw0nxVmFTu3I/u3O1c0ijMmayRSLKQFC0KjpFin7d3iWA0UhwgY7Hwt237nl4YFvZhX9qHN0v7hrX4SGlxkbZLmHjao7BQCH6LJ4Uv3hwW0979gw4fLNvHJv5u1JwAj2LksyA+GSAvpgaW/uzKgBkav4TDgmYhIRiLmYvtYbuOfT/vEC90xOKnC/C3ZlgNG7910ggoxmtFuQp6XNV49beTBjh8hLPKPsaBG2KA5/wU5LF29TrgwM8TFRnSx2o8S8IafeyWNQbaILPNAx3wFDqsMr+SC8AxWbCZiAcfh9RUrobOhDhUc3UyOmTTRJIFRNfl72JhcnqYA4+ity6llkD4hnpWYSJKBpqDNSMcbEKhE4lBA8iG8myHITeaWTR+qXCMOByBYycwKQ+0baTst82uFiMzngh2NYSdh8Kx2/h9iQPs/q+RrdBrV9fgCax4Z5muWJjJqPLkq5km0mLnQdkkQ3RtDjRHhqVeHbdxi5BNE0kWEFWOFWYjcxoFMimX3ltfOKB41muzroKDsHYTBmIfVaVZMyjntJQNpfnKLgwcB7GyNTZ0eLViTFxUFZcYaWY2LCL2zTDi6BooDOCWZkNjkzmHwUHgMQaOfg0kR8RCxouxVUEwoR/uyGqEZmn8jrEuD9Zho2VDnzJs/SkeQlM0PxnnZJSop8ySravTUV5c1CEteXEwHtcqvkQypQtemYaBuO0Zc9KiomeroHEUQhFbBNUZVaqcXDUwqI8EpEj6LIN45aFx8UCYMfAwsqG+2yq4k/ogwuBJUWmmcE6lSDjTd6BukByHw/BWKULcFWZYaVYdInsq6YObyyrOxJXQIemoQiFCF4XMZZYC0Y6Lz5Ozcjh3q4mqmNJpVoxT73aY54zCzBwydocpggBJzyExGDNW69chxglnVHSfN+gNAmlVyCYEGpKWojT2iZCgElQH47msihmd2UxhIACGdQGTrAXnVzlGZFHVS3+OMQwrkcDhKzcrQbN/o28CXw+M8a95bj0J8zxJRvdESicrY88KizPWVSCTxaGFU4OonMCrMKmcWZgyYCat+qd4ozPuVYUBnTSB9ZyvRVbLMtk5BpokI7dZQVjF4bLOFN2bUeOHKLawGqsymaBsA2cnkmF6YD/KhjSF8dgPou5sukGCj+zaHLgPqVXXuYaJsPIXiB7NTxUIgRYrU8UpmNSt6tRhPKoJZeQxAFRxHokdEx/HtmVc6Cun8EG3cmGSCAbtGVLW4ejZNDmobJco/Z2svSkNhEdppqPCJCBfhTVZbpidJQdu5JCR2IU4hun/tDBJr7/Pz3JFnzVSdQI8thmpaWpbk6tH8djasc/2qKJhlN15H2eNe5Tf3mc/ehaeg27lwgy+71SYCs0SMJtRWAA0DAE+6osppJ2pn92GjsmIkDD1uSy1FH7bbPxEkzB5j0uNrjidOyIrFJ2qrJ2OrUndyI5hT13z0ZAQx5ZsyBp27lNXNcjDNGdr8xZ4awhrgWOQ+OSObeVqwhA1/xmnmBBcX5hub2phtD4x1tCQFdP81l7SWRcHruLMwkwr5IlWpr4jXpdqNCo5TJpparQY4d8I5RQrzKnYCVQJuhGO7gDF0FD2jSEDmLOAcim0zC2Cuq51pbKPJJxi21Y14+hOsUiex9G3RvoIMdtVlWKOeRMVTYiZGLsASyxSLy5CE7ZpK8z5bJiAE04cr6/daWn1rbSVeZOvXBvV3Xe5MMdXMXfPxdekKlxEgH8adWd4FUbiKQd1R5AemAqzXrKICLlyd47GVBcr2atsZeM0MdJKUChAo2sy6mNrJw2YZSPlmCRzVUyjnbQHqLMZz7mrTaoUbGVIzkJAw78G2IaB4pNoyioGuGvsRIBtd+GocyVSmgSxCrOyUA4W/q1cJG4WyzGFo9p2nQS0e5ePdRtjADW3sKsWqgYGDqHhxuCxDcYzINCIeRoi4gq+aXFRpeVkX5GL1WQaZBdVpg6JMoCWvagrLIPKFgN006hL2OXSkjUVeXYZHERKbNOsOaccAh9aOSVk4ldRGR8OIBMfDFKgSZqwhLR5TLzBwkeQXkoH/4uFWe8bjGzGVucockqpzbD4TmKluDLTM0N9J1/T9GKmbuUYJq1lCzt002gKVV7MlQsz+7EaE7FCtLGEKebUNQ5A6JXnG/8QW7dq2htQzJ1SaQStttSpMOMEEHaOPyrqrpgRvZ/RggXVaOjS5m4ZTORyWAJbF7gKpSBNrs7Kahv+rHGeagpZYs5A9IWajaDBTNRMxciNhsKTcarLqUJZj1qRwQbdNOq5TeEF4gS5MGUFTV3V5AbU3ZW6ehHG43WW4IoUaCf2ulw0q8JpHJJNa+3vcxaPUchPQP2nFcmOZwS9OS7QE85zPFKOrELcnKLXoMbvvjjv3alh0YRn9L2XTE2vQ8NJkloZrQgCXjh1uplPfOPu2I559CsfhRABrBCHqCoEApNBkGU1hBAaBgcf2sghcYFRSlrRam8dN6whR97OGVzhxxpbMLeheeMMLGRcS21N6hJqmsx7DS0rb/8LX40fOIKcP28AAAAASUVORK5CYII=;" vertex="1" parent="5">
                    <mxGeometry x="37.8" y="30" width="44.41" height="27.29" as="geometry"/>
                </mxCell>
                <mxCell id="6" value="" style="group" vertex="1" connectable="0" parent="1">
                    <mxGeometry x="270" y="350" width="120" height="130" as="geometry"/>
                </mxCell>
                <mxCell id="7" value="&lt;span style=&quot;font-size: 14px;&quot;&gt;&lt;b&gt;ML Model&lt;br&gt;&lt;/b&gt;&lt;/span&gt;Real-time&lt;br&gt;Malicious traffic&lt;br&gt;identification" style="rounded=1;whiteSpace=wrap;html=1;" vertex="1" parent="6">
                    <mxGeometry width="120" height="130" as="geometry"/>
                </mxCell>
                <mxCell id="9" value="" style="group" vertex="1" connectable="0" parent="1">
                    <mxGeometry x="70" y="350" width="120" height="130" as="geometry"/>
                </mxCell>
                <mxCell id="10" value="&lt;b style=&quot;font-size: 14px;&quot;&gt;Attack Scripts&lt;/b&gt;&lt;br&gt;Automatically&lt;br&gt;generated diverse&lt;br&gt;attack" style="rounded=1;whiteSpace=wrap;html=1;" vertex="1" parent="9">
                    <mxGeometry width="120" height="130" as="geometry"/>
                </mxCell>
                <mxCell id="11" value="" style="group" vertex="1" connectable="0" parent="1">
                    <mxGeometry x="70" y="520" width="120" height="60" as="geometry"/>
                </mxCell>
                <mxCell id="12" value="&lt;span style=&quot;font-size: 14px;&quot;&gt;&lt;b&gt;Mininet&lt;/b&gt;&lt;/span&gt;" style="rounded=1;whiteSpace=wrap;html=1;" vertex="1" parent="11">
                    <mxGeometry width="120" height="60" as="geometry"/>
                </mxCell>
                <mxCell id="25" style="edgeStyle=orthogonalEdgeStyle;html=1;fontSize=12;" edge="1" parent="1" source="13">
                    <mxGeometry relative="1" as="geometry">
                        <mxPoint x="330" y="480" as="targetPoint"/>
                    </mxGeometry>
                </mxCell>
                <mxCell id="31" style="edgeStyle=none;html=1;entryX=0.5;entryY=0;entryDx=0;entryDy=0;fontSize=12;endArrow=none;endFill=0;" edge="1" parent="1" source="13">
                    <mxGeometry relative="1" as="geometry">
                        <mxPoint x="330" y="630" as="targetPoint"/>
                    </mxGeometry>
                </mxCell>
                <mxCell id="13" value="Anomaly&lt;br&gt;Traffic" style="ellipse;shape=cloud;whiteSpace=wrap;html=1;fontSize=12;" vertex="1" parent="1">
                    <mxGeometry x="270" y="518" width="120" height="80" as="geometry"/>
                </mxCell>
                <mxCell id="16" value="" style="group" vertex="1" connectable="0" parent="1">
                    <mxGeometry x="480" y="381" width="120" height="60" as="geometry"/>
                </mxCell>
                <mxCell id="17" value="&lt;span style=&quot;&quot;&gt;Auto Update&lt;br&gt;Defense Rules&lt;br&gt;&lt;/span&gt;" style="rounded=1;whiteSpace=wrap;html=1;" vertex="1" parent="16">
                    <mxGeometry width="120" height="60" as="geometry"/>
                </mxCell>
                <mxCell id="22" style="edgeStyle=orthogonalEdgeStyle;html=1;entryX=0.07;entryY=0.4;entryDx=0;entryDy=0;entryPerimeter=0;fontSize=12;" edge="1" parent="1" source="12" target="13">
                    <mxGeometry relative="1" as="geometry"/>
                </mxCell>
                <mxCell id="23" style="edgeStyle=orthogonalEdgeStyle;html=1;entryX=0.5;entryY=0;entryDx=0;entryDy=0;fontSize=12;" edge="1" parent="1" source="10" target="12">
                    <mxGeometry relative="1" as="geometry"/>
                </mxCell>
                <mxCell id="26" style="edgeStyle=orthogonalEdgeStyle;html=1;entryX=0.5;entryY=1;entryDx=0;entryDy=0;fontSize=12;" edge="1" parent="1" source="7" target="3">
                    <mxGeometry relative="1" as="geometry"/>
                </mxCell>
                <mxCell id="32" style="edgeStyle=none;html=1;fontSize=12;endArrow=none;endFill=0;startArrow=classic;startFill=1;" edge="1" parent="1">
                    <mxGeometry relative="1" as="geometry">
                        <mxPoint x="390" y="423" as="targetPoint"/>
                        <mxPoint x="480" y="423" as="sourcePoint"/>
                    </mxGeometry>
                </mxCell>
                <mxCell id="33" value="Real-time&lt;br&gt;malicious&lt;br&gt;traffic" style="text;html=1;align=center;verticalAlign=middle;resizable=0;points=[];autosize=1;strokeColor=none;fillColor=none;fontSize=12;" vertex="1" parent="1">
                    <mxGeometry x="400" y="428" width="70" height="60" as="geometry"/>
                </mxCell>
                <mxCell id="35" value="Update &lt;br&gt;Model" style="text;html=1;align=center;verticalAlign=middle;resizable=0;points=[];autosize=1;strokeColor=none;fillColor=none;fontSize=12;" vertex="1" parent="1">
                    <mxGeometry x="405" y="357" width="60" height="40" as="geometry"/>
                </mxCell>
                <mxCell id="36" style="edgeStyle=none;html=1;fontSize=12;startArrow=classic;startFill=1;endArrow=none;endFill=0;entryX=0;entryY=0.367;entryDx=0;entryDy=0;entryPerimeter=0;" edge="1" parent="1" target="17">
                    <mxGeometry relative="1" as="geometry">
                        <mxPoint x="390" y="403" as="sourcePoint"/>
                        <mxPoint x="470" y="403" as="targetPoint"/>
                    </mxGeometry>
                </mxCell>
                <mxCell id="39" value="" style="group" vertex="1" connectable="0" parent="1">
                    <mxGeometry x="270" y="630" width="120" height="60" as="geometry"/>
                </mxCell>
                <mxCell id="40" value="&lt;span style=&quot;&quot;&gt;Attack Discoveny&lt;br&gt;&amp;amp; Defense Time&lt;br&gt;&lt;/span&gt;" style="rounded=1;whiteSpace=wrap;html=1;" vertex="1" parent="39">
                    <mxGeometry width="120" height="60" as="geometry"/>
                </mxCell>
                <mxCell id="46" value="Auto Update&lt;br style=&quot;border-color: var(--border-color);&quot;&gt;&lt;span style=&quot;&quot;&gt;Flow Rules&lt;br&gt;&lt;/span&gt;" style="rounded=1;whiteSpace=wrap;html=1;" vertex="1" parent="1">
                    <mxGeometry x="480" y="160" width="120" height="130" as="geometry"/>
                </mxCell>
                <mxCell id="47" style="edgeStyle=orthogonalEdgeStyle;html=1;entryX=0;entryY=0.5;entryDx=0;entryDy=0;fontSize=12;startArrow=classic;startFill=1;endArrow=classic;endFill=1;" edge="1" parent="1" source="3" target="46">
                    <mxGeometry relative="1" as="geometry"/>
                </mxCell>
            </root>
        </mxGraphModel>
    </diagram>
</mxfile>